<?xml version="1.0" encoding="UTF-8"?>
<svg width="800px" height="600px" viewBox="0 0 800 600" version="1.1" xmlns="http://www.w3.org/2000/svg">
    <g stroke="none" stroke-width="1" fill="none" fill-rule="evenodd">
        <!-- Background -->
        <rect fill="#F3F4F6" x="0" y="0" width="800" height="600"/>
        
        <!-- Graph Lines -->
        <path d="M100,400 L200,350 L300,380 L400,300 L500,320 L600,280 L700,250" 
              stroke="#3B82F6" stroke-width="4" fill="none"/>
        
        <!-- Data Points -->
        <circle cx="100" cy="400" r="8" fill="#3B82F6"/>
        <circle cx="200" cy="350" r="8" fill="#3B82F6"/>
        <circle cx="300" cy="380" r="8" fill="#3B82F6"/>
        <circle cx="400" cy="300" r="8" fill="#3B82F6"/>
        <circle cx="500" cy="320" r="8" fill="#3B82F6"/>
        <circle cx="600" cy="280" r="8" fill="#3B82F6"/>
        <circle cx="700" cy="250" r="8" fill="#3B82F6"/>
        
        <!-- Money Bag -->
        <path d="M400,200 C400,150 450,150 450,200 L450,300 C450,350 400,350 400,300 Z" 
              fill="#10B981"/>
        <path d="M400,200 C400,150 350,150 350,200 L350,300 C350,350 400,350 400,300 Z" 
              fill="#059669"/>
        
        <!-- Dollar Sign -->
        <text x="400" y="250" font-family="Arial" font-size="40" fill="white" text-anchor="middle">$</text>
        
        <!-- Decorative Elements -->
        <circle cx="200" cy="150" r="50" fill="#EFF6FF" opacity="0.5"/>
        <circle cx="600" cy="450" r="70" fill="#EFF6FF" opacity="0.5"/>
        <circle cx="700" cy="150" r="40" fill="#EFF6FF" opacity="0.5"/>
    </g>
</svg> 